<?xml version="1.0" encoding="utf-8"?>
<!-- Generator: Adobe Illustrator 21.0.1, SVG Export Plug-In . SVG Version: 6.00 Build 0)  -->
<svg version="1.1" id="Layer_1" xmlns="http://www.w3.org/2000/svg" xmlns:xlink="http://www.w3.org/1999/xlink" x="0px" y="0px"
	 viewBox="0 0 200 100" style="enable-background:new 0 0 200 100;" xml:space="preserve">
<style type="text/css">
	.st0{fill:url(#SVGID_1_);}
	.st1{fill:url(#SVGID_2_);}
	.st2{fill:url(#SVGID_3_);}
	.st3{fill:url(#SVGID_4_);}
</style>
<g>
	<linearGradient id="SVGID_1_" gradientUnits="userSpaceOnUse" x1="7.7178" y1="46.0496" x2="36.5142" y2="98.6511">
		<stop  offset="0" style="stop-color:#FFE7A3"/>
		<stop  offset="0.5" style="stop-color:#FFCA05"/>
		<stop  offset="1" style="stop-color:#FAAC18"/>
	</linearGradient>
	<path class="st0" d="M32.8,58.9c-0.3-1.7-0.7-3.3-1.3-4.6c-0.6-1.3-1.3-2.5-2.1-3.4c-0.8-1-1.6-1.8-2.6-2.4
		c-0.9-0.6-1.8-1.2-2.7-1.6c-2.2-0.9-4.5-1.5-6.9-1.5c-3,0.1-5.7,0.8-8,2c-1,0.5-2,1.2-2.9,2.1c-1,0.9-1.8,1.9-2.6,3.2
		c-0.7,1.3-1.3,2.8-1.8,4.5c-0.4,1.7-0.7,3.8-0.7,6.1c0,2.3,0.2,4.4,0.7,6.1c0.4,1.7,1,3.3,1.8,4.5c0.7,1.3,1.6,2.3,2.6,3.1
		c1,0.8,1.9,1.5,2.9,2.1c2.3,1.2,5,1.8,8,1.9c2.3,0,4.5-0.4,6.5-1.2c0.9-0.4,1.7-0.8,2.6-1.4c0.9-0.6,1.7-1.3,2.5-2.1
		c0.8-0.9,1.5-1.9,2.2-3c0.6-1.2,1.2-2.5,1.5-4.1h-8.7c-0.5,1.2-1.3,2.2-2.3,3.1c-1,0.9-2.5,1.3-4.3,1.3c-1.8,0-3.3-0.4-4.3-1.3
		c-1-0.9-1.8-1.9-2.3-3.1c-0.3-0.8-0.5-1.5-0.7-2.3c-0.1-0.8-0.2-1.6-0.3-2.3h23.6v-1.2c0-0.8,0-1.6-0.1-2.3
		C33,60.3,32.9,59.6,32.8,58.9z M10.1,58.9c0.2-0.7,0.4-1.4,0.8-2.2c0.4-0.7,0.8-1.4,1.4-2c0.6-0.6,1.3-1,2.1-1.4
		c0.8-0.3,1.7-0.5,2.8-0.5s2,0.2,2.8,0.5c0.8,0.3,1.5,0.8,2.1,1.4c0.6,0.6,1,1.2,1.4,2c0.3,0.7,0.6,1.4,0.8,2.2H10.1z"/>
	<g>
		<linearGradient id="SVGID_2_" gradientUnits="userSpaceOnUse" x1="38.1521" y1="29.3885" x2="66.9485" y2="81.99">
			<stop  offset="0" style="stop-color:#FFE7A3"/>
			<stop  offset="0.5" style="stop-color:#FFCA05"/>
			<stop  offset="1" style="stop-color:#FAAC18"/>
		</linearGradient>
		<path class="st1" d="M81.5,50.5c0-0.3,0-0.6,0-0.9c0,0-0.1-0.1-0.1-0.1c-0.9-0.9-1.9-1.5-2.8-2.1c-2.2-1.3-4.7-1.9-7.5-2
			c-2.9,0.1-5.4,0.8-7.6,2c-0.9,0.5-1.9,1.2-2.8,2.1c-0.2,0.2-0.5,0.5-0.7,0.7c-0.2-0.3-0.5-0.5-0.7-0.7c-0.9-0.9-1.9-1.5-2.8-2.1
			c-2.2-1.3-4.7-1.9-7.5-2c-2.9,0.1-5.4,0.8-7.6,2c-0.9,0.5-1.9,1.2-2.8,2.1c-0.9,0.9-1.7,1.9-2.4,3.2c-0.7,1.3-1.3,2.8-1.7,4.5
			c-0.4,1.7-0.6,3.8-0.6,6.1v17H42v-17c0-1,0.1-2,0.2-3c0.1-1,0.4-2,0.8-2.8c0.4-0.9,1.1-1.6,2.1-2.1c0.9-0.6,2.2-0.8,3.9-0.8
			c1.7,0,2.9,0.3,3.9,0.8c0.9,0.6,1.6,1.3,2.1,2.1c0.4,0.9,0.7,1.8,0.8,2.8c0.1,1,0.2,2,0.2,3v17h8.2v-17c0-1,0.1-2,0.2-3
			c0.1-1,0.4-2,0.8-2.8c0.4-0.9,1.1-1.6,2.1-2.1c0.9-0.6,2.2-0.8,3.9-0.8c1.7,0,2.9,0.3,3.9,0.8c0.9,0.6,1.6,1.3,2.1,2.1
			c0.4,0.9,0.7,1.8,0.8,2.8c0.1,1,0.2,2,0.2,3v17h8.2V75c-0.4-0.8-0.9-1.6-1.2-2.5C82.6,67.1,81.5,59.8,81.5,50.5z"/>
		<linearGradient id="SVGID_3_" gradientUnits="userSpaceOnUse" x1="102.3869" y1="-5.7765" x2="131.1833" y2="46.8249">
			<stop  offset="0" style="stop-color:#2BC4F3"/>
			<stop  offset="0.5" style="stop-color:#00AEEE"/>
			<stop  offset="1" style="stop-color:#0095DA"/>
		</linearGradient>
		<path class="st2" d="M197.5,68.2c-0.3-0.5-0.8-0.8-1.4-0.8c-0.7,0-1.3,0.3-1.8,1c-1.6,2-3,3.5-4.1,4.3c-1.2,0.9-2.7,1.3-4.5,1.3
			c-2.6,0-4.4-1-5.5-3.1c5.3-1.3,9.1-3.1,11.3-5.3c2.2-2.2,3.3-4.9,3.3-8c0-2.6-0.8-4.7-2.4-6.3c-1.6-1.5-3.7-2.3-6.3-2.3
			c-2.9,0-5.5,0.8-7.8,2.4c-2.3,1.6-4.1,3.7-5.4,6.4c-1.3,2.7-2,5.6-2,8.6c0,1,0.1,1.9,0.2,2.8c-1,1-1.9,1.8-2.7,2.4
			c-1.5,1.2-3.2,1.7-5.1,1.7c-2.4,0-4.1-0.9-5.2-2.8c-1.1-1.9-1.6-5.2-1.6-9.8c0-1.3,0-3,0.1-5.2h8.2c5.1,0,7.6-1.5,7.6-4.6
			c0-0.9-0.2-1.4-0.5-1.7c-0.3-0.3-0.8-0.5-1.5-0.5h-7.5c5.8-5.2,8.7-11.2,8.7-18.2c0-2.5-0.5-4.6-1.6-6.3c-1.1-1.7-2.6-2.5-4.4-2.5
			c-2.6,0-4.9,1.2-7.2,3.6c-2.2,2.4-4.1,5.7-5.7,9.8c-1.6,4.1-2.7,8.6-3.5,13.5h-3.8c-2,0-3,1.3-3,3.8c0,1.1,0.2,1.9,0.7,2.4
			c0.5,0.5,1.4,0.7,2.7,0.7h2.6c-0.1,2-0.2,4-0.2,6c0,1.4,0.1,2.8,0.2,4.1c-0.4,0.1-0.8,0.4-1.1,0.8c-2,2.4-3.6,4.2-4.8,5.3
			c-1.2,1.1-2.2,1.7-3,1.7c-0.9,0-1.5-0.4-1.8-1.1c-0.4-0.7-0.5-1.7-0.5-3.1c0-1.7,0.5-5.1,1.6-10c0.9-4.1,1.3-6.7,1.3-7.8
			c0-1.5-1.1-2.3-3.4-2.3c-1.5,0-2.6,0.3-3.2,0.8c-0.4,0.3-0.8,0.8-1.1,1.5c-2.9,0-5.5-0.2-7.8-0.6c2.2-6.1,3.4-11.7,3.4-16.9
			c0-3.6-0.8-6.4-2.5-8.5c-1.7-2.1-4-3.1-6.8-3.1c-2.3,0-4.5,0.6-6.4,1.8c-1.9,1.2-3.4,3-4.5,5.5c-1.1,2.4-1.6,5.4-1.6,9
			c0,3.5,0.7,6.7,2.1,9.4c1.4,2.7,3.5,4.9,6.2,6.6c-2.3,4.9-4.8,8.9-7.5,12.2c-2.7,3.2-5.3,4.8-7.6,4.8c-2.3,0-4-1.8-5.1-5.3
			c-1.1-3.6-1.7-8.8-1.7-15.6c0-6.5,0.7-13.9,2-21.9c0.1-0.7,0.1-1.2,0.1-1.5c0-2.6-1.5-3.8-4.4-3.8c-1.8,0-3.1,0.4-3.8,1.2
			c-0.7,0.8-1.3,2.4-1.7,4.7c-1.1,6-1.6,12.8-1.7,20.3c0,0.3,0,0.6,0,0.9c0,9.2,1.1,16.6,3.4,22c0.4,0.9,0.8,1.7,1.2,2.5
			c2.2,3.8,5.3,5.7,9.2,5.7c4.5,0,9.1-2.2,13.6-6.6c4.5-4.4,8.4-10,11.5-16.7c2.5,0.6,5.4,0.8,8.7,0.8c-0.2,1.1-0.4,2.2-0.6,3.4
			c-0.5,3.2-0.8,5.8-0.8,7.8c0,3.4,0.7,6.1,2,8.2c1.3,2.1,3.4,3.1,6.4,3.1c3.9,0,8-2.7,12.4-8.1c0-0.1,0.1-0.1,0.1-0.2
			c2.1,5.5,6.1,8.3,12.1,8.3c3,0,5.6-0.8,7.9-2.3c1.3-0.8,2.5-1.8,3.6-2.9c0.3,0.5,0.7,0.9,1.1,1.3c2.4,2.6,5.7,3.9,10,3.9
			c2.8,0,5.3-0.5,7.3-1.6c2-1.1,3.7-2.6,4.9-4.5c0.8-1.2,1.1-2.6,1.1-4.2C198,69.4,197.8,68.7,197.5,68.2z M159.2,37.6
			c0.7-3,1.5-5.3,2.4-7c0.8-1.7,1.6-2.5,2.3-2.5c1,0,1.5,1.3,1.5,4c0,2.3-0.7,4.9-2,7.8c-1.3,2.8-3.3,5.4-6,7.7
			C157.9,43.9,158.5,40.6,159.2,37.6z M117,47.8c-2.8-2.1-4.2-5.4-4.2-9.8c0-2.6,0.4-4.6,1.1-6c0.8-1.4,1.7-2.1,3-2.1
			c0.9,0,1.5,0.4,2,1.3c0.5,0.9,0.7,2.3,0.7,4.1C119.6,38.6,118.7,42.7,117,47.8z M179.2,65.5c0-2.7,0.6-5.1,1.7-7
			c1.1-1.9,2.5-2.9,4.2-2.9c0.8,0,1.4,0.3,1.9,0.8c0.5,0.5,0.7,1.2,0.7,2.1c0,1.7-0.8,3.1-2.3,4.4c-1.5,1.3-3.6,2.2-6.3,2.8V65.5z"
			/>
	</g>
	<linearGradient id="SVGID_4_" gradientUnits="userSpaceOnUse" x1="129.944" y1="33.2128" x2="149.7218" y2="33.2128">
		<stop  offset="0" style="stop-color:#F37E5F"/>
		<stop  offset="0.5" style="stop-color:#EC1C24"/>
		<stop  offset="1" style="stop-color:#CF232A"/>
	</linearGradient>
	<path class="st3" d="M149.4,32.5c-1.7,6.2-11.5,12.5-13.7,13.8c-0.2,0.1-0.5,0.1-0.7-0.2c-1.2-2.3-6.4-12.8-4.8-18.9
		c1.4-5.3,6.9-8.4,12.2-6.9C147.7,21.8,150.8,27.2,149.4,32.5z M141.7,23c-3.8-1-7.8,1.2-8.8,5c-1,3.8,1.2,7.8,5,8.8s7.8-1.2,8.8-5
		C147.8,28,145.5,24,141.7,23z"/>
</g>
</svg>
