<?xml version="1.0" encoding="utf-8"?>
<!-- Generator: Adobe Illustrator 21.0.1, SVG Export Plug-In . SVG Version: 6.00 Build 0)  -->
<svg version="1.1" id="Layer_1" xmlns="http://www.w3.org/2000/svg" xmlns:xlink="http://www.w3.org/1999/xlink" x="0px" y="0px"
	 viewBox="0 0 20 20" style="enable-background:new 0 0 20 20; width: 15px; height: 15px;" xml:space="preserve">
<style type="text/css">
	.st0{fill:#FFFFFF;}
</style>
<path class="st0" d="M17.6,8.2h-5.8V2.4c0-0.2-0.2-0.4-0.4-0.4H9.5C9.2,2,9.1,2.2,9.1,2.4v5.7H3.4C3.2,8.2,3,8.4,3,8.6v1.9
	c0,0.2,0.2,0.4,0.4,0.4h5.6v5.7c0,0.2,0.2,0.4,0.4,0.4h1.9c0.2,0,0.4-0.2,0.4-0.4v-5.7h5.8c0.2,0,0.4-0.2,0.4-0.4V8.6
	C18,8.4,17.8,8.2,17.6,8.2z"/>
</svg>
